<?xml version="1.0" ?><svg id="Layer_1" style="enable-background:new 0 0 256 256;" version="1.1" viewBox="0 0 256 256" xml:space="preserve" xmlns="http://www.w3.org/2000/svg" xmlns:xlink="http://www.w3.org/1999/xlink"><g><path d="M192.7,83.9l-6.1,0c-0.9,0-1.8,0-2.7,0c-0.9-3.1-2.1-6-3.7-8.9c1.1-1.1,2.2-2.2,3.4-3.4l3-3l-2.5-3.4   c-3.5-4.8-7.6-9-12.5-12.4l-3.4-2.4l-2.9,3c-0.8,0.8-1.6,1.6-2.4,2.4c-0.3,0.3-0.7,0.7-1,1c-2.8-1.5-5.8-2.8-8.9-3.7l0-2.1   c0-0.8,0-1.7,0-2.7v-4.2l-4.1-0.7c-5.7-0.9-11.6-0.9-17.2,0l-4.3,0.7l0.2,4.4c0,0.8,0,1.7,0,2.5l0,1.2l0,0.9   c-3.1,0.9-6.1,2.1-8.9,3.7c-0.3-0.3-0.7-0.7-1-1c-0.8-0.8-1.6-1.6-2.4-2.4l-2.9-3l-3.4,2.5c-4.8,3.4-9,7.6-12.5,12.4l-2.5,3.4l3,3   c1.1,1.1,2.3,2.2,3.4,3.4c-1.5,2.8-2.8,5.8-3.7,8.9c-0.9,0-1.8,0-2.7,0l-6.3,0.2l-0.7,4c-0.5,2.9-0.7,5.9-0.7,8.8   c0,2.9,0.2,5.9,0.7,8.8l0.6,3.7l4.4,0.4l0.3,0c0.8,0,1.6,0,2.4,0c0.7,0,1.4,0,2.1,0c0.9,3.1,2.2,6.1,3.7,9   c-0.4,0.4-0.9,0.9-1.3,1.3l-1.5,1.5c-0.3,0.3-0.5,0.5-0.7,0.7l-2.7,3l2.3,3.2c3.4,4.7,7.6,8.9,12.4,12.3l3.2,2.3l2.9-2.7l0.4-0.4   c0.9-1,1.9-1.9,2.8-2.8c0.1-0.1,0.3-0.3,0.4-0.4c2.8,1.5,5.8,2.8,8.9,3.7c0,0.4,0,0.9,0,1.3c0,1.1,0,2.2,0,3.3l0.3,4.4l3.8,0.6   c2.8,0.5,5.7,0.7,8.6,0.7c2.9,0,5.8-0.2,8.6-0.7l4-0.6l0.2-4.3l0-0.1c0-1.1,0-2.2,0-3.3c0-0.4,0-0.9,0-1.3c3.1-0.9,6.1-2.1,8.9-3.7   c0.1,0.1,0.2,0.2,0.4,0.4c0.9,0.9,1.9,1.9,2.8,2.9l3.3,3l3.2-2.3c4.8-3.4,8.9-7.5,12.4-12.3l2.4-3.3l-2.7-3   c-0.2-0.2-0.4-0.4-0.7-0.7l-1.5-1.5c-0.4-0.4-0.9-0.9-1.3-1.3c1.6-2.9,2.8-5.9,3.8-9c0.1,0,0.2,0,0.3,0c1.4,0,2.8,0,4.1,0l4.7-0.4   l0.6-3.7c0.5-2.9,0.7-5.8,0.7-8.8c0-2.9-0.2-5.9-0.7-8.8L192.7,83.9z M184.3,99.9c-0.1,0-0.1,0-0.2,0c-1.3,0-2.5,0-3.8,0l-4.4,0.4   l-0.7,3.6c-0.9,4.6-2.7,8.9-5.4,12.9l-1.8,2.7l1.8,2.7c0.3,0.4,0.6,0.8,1,1.2c0.9,0.8,1.7,1.7,2.6,2.6c-1.3,1.5-2.8,2.9-4.3,4.2   c-0.9-0.9-1.8-1.7-2.6-2.7c-0.4-0.4-0.8-0.7-1.2-1l-2.7-1.8l-2.7,1.8c-3.9,2.6-8.2,4.4-12.8,5.3l-3.1,0.6l-0.7,3.1   c-0.1,0.6-0.2,1.3-0.2,2c0,1.2,0,2.3,0,3.5c-1.9,0.1-3.9,0.1-5.8,0c0-1.2,0-2.3,0-3.5c0-0.7,0-1.3-0.2-1.9l-0.7-3.1l-3.1-0.6   c-4.6-0.9-8.9-2.7-12.8-5.3l-2.7-1.8l-2.7,1.8c-0.4,0.3-0.9,0.6-1.3,1.1c-0.9,0.9-1.7,1.8-2.6,2.6c-1.5-1.3-2.9-2.7-4.3-4.2   c0.9-0.9,1.7-1.7,2.6-2.6c0.4-0.4,0.7-0.8,1-1.2l1.9-2.8l-1.9-2.8c-2.6-3.9-4.4-8.2-5.4-12.9l-0.7-3.6l-4.2-0.4l-0.2,0   c-0.7,0-1.4,0-2,0c-0.7,0-1.3,0-2,0c-0.1-1-0.1-2-0.1-3.1c0-1,0-2.1,0.1-3.1c1.1,0,2.2,0,3.4,0c0.8,0,1.5-0.1,2.2-0.2l2.9-0.8   l0.6-3c0.9-4.5,2.7-8.8,5.3-12.7l1.8-2.6l-1.7-2.7c-0.4-0.7-0.9-1.2-1.5-1.8l-0.8-0.8c-0.4-0.4-0.9-0.9-1.3-1.3   c1.4-1.5,2.8-3,4.4-4.3c0.8,0.8,1.6,1.6,2.4,2.4c0.7,0.7,1.4,1.3,2.2,1.6l2.5,1.1l2.2-1.5c3.9-2.6,8.2-4.3,12.7-5.2l3-0.6l0.8-2.9   c0.2-0.6,0.2-1.3,0.2-2c0-0.9,0-1.8,0-2.7l0-0.9c1.9-0.1,3.9-0.1,5.8,0l0,0.9c0,0.9,0,1.8,0,2.7c0,0.7,0,1.4,0.2,2l0.8,2.9l3,0.6   c4.5,0.9,8.8,2.6,12.7,5.2l2.2,1.5l2.5-1.1c0.8-0.4,1.5-0.9,2.2-1.6c0.8-0.8,1.6-1.6,2.4-2.4c1.6,1.3,3,2.8,4.4,4.3   c-0.4,0.4-0.9,0.9-1.3,1.3l-0.8,0.8c-0.6,0.6-1.1,1.1-1.5,1.8l-1.7,2.7l1.8,2.7c2.6,3.9,4.4,8.1,5.3,12.7l0.6,3l2.9,0.8   c0.7,0.2,1.4,0.3,2.2,0.2c1.1,0,2.2,0,3.3,0c0.1,1,0.1,2.1,0.1,3.1C184.4,97.9,184.4,98.9,184.3,99.9z"/><path d="M141.2,6.5C104.7,5.9,71.4,27,56.4,60.2C51,72.1,48.2,84.8,48.2,98c0,0.5,0,3.2,0,7.5c-0.6,3.1-3.3,6.1-6.1,8.8   c-0.9,0.9-2.4,2.3-4.1,3.9c-5.8,5.6-8.3,8-9.2,9.1c-1.8,2.2-2.9,4.2-3.6,6.2c-2.3,7,3.2,10.5,5,11.6c2.1,1.3,4.2,2.3,5.8,3   c1.6,0.8,3.3,1.5,5,2.2l0.3,0.1c0.2,0.1,0.4,0.2,0.6,0.3c1.4,9.3,6.7,44.1,6.7,44.3c0.6,5.9,2.6,10.4,5.9,13.4   c5.8,5.3,13.5,5,19.8,4.9c4.6-0.1,8.6-0.1,12.8-0.1c0.3,3.8,0.7,9.6,1,14.6c0.3,5,0.7,10.1,0.9,14.1c0.2,2.3,1.3,4.5,3.2,5.9   c1.4,1.1,3.2,1.7,4.9,1.7c0.5,0,1.1-0.1,1.6-0.2l101.3-20.2c5.5-1.1,9.5-6,9.5-11.6v-18.4c0-21.7,4.7-43.6,13.9-65.1   c5.2-12,7.7-24.8,7.4-38v0C230.3,46.7,190.7,7.3,141.2,6.5z M214.7,130.3c-9.8,22.7-14.7,45.9-14.7,69v18.4c0,0.9-0.7,1.8-1.6,1.9   L99,239.4c-0.2-3.6-0.5-7.9-0.8-12.1c-1.2-18.5-1.3-19.4-1.5-20.2l-1-3.6h-3.8h-0.9c-5.5,0-10.8-0.1-16.7,0.1   c-5,0.1-10.1,0.3-12.9-2.3c-1.5-1.4-2.4-3.8-2.8-7.4c-0.1-0.4-7.1-46.7-7.1-46.7l-0.2-1.3l-0.9-1l-1.1-1.2   c-1.1-0.9-2.4-1.4-3.3-1.7l-1-0.4c-1.6-0.7-3.1-1.3-4.7-2.1c-1.5-0.7-3.1-1.5-4.7-2.5c-0.3-0.2-0.6-0.4-0.7-0.5   c0.3-0.8,0.9-1.7,1.7-2.8c0.8-0.9,5.5-5.5,8.4-8.2c1.7-1.6,3.2-3.1,4.1-4c3.9-3.9,8-8.6,9-14.7l0.1-0.4l0-0.4c0-4.5,0-7.4,0-7.9   c0-11.8,2.4-23.1,7.3-33.7c13.4-29.6,43.1-48.6,75.7-47.9c44.2,0.7,79.5,35.9,80.3,80.1C221.6,108.2,219.4,119.6,214.7,130.3z"/></g></svg>