<?xml version="1.0" ?><svg id="Layer_1" style="enable-background:new 0 0 512 512;" version="1.1" viewBox="0 0 512 512" xml:space="preserve" xmlns="http://www.w3.org/2000/svg" xmlns:xlink="http://www.w3.org/1999/xlink"><style type="text/css">
	.st0{fill:none;stroke:#000000;stroke-width:2;stroke-linecap:round;stroke-linejoin:round;stroke-miterlimit:10;}
	.st1{stroke:#000000;stroke-width:2;stroke-linecap:round;stroke-linejoin:round;stroke-miterlimit:10;}
	.st2{fill:#FFFFFF;}
</style><g><g><path d="M383.54,511H128.41c-10.65,0-19.32-8.67-19.32-19.32V20.32C109.09,9.67,117.75,1,128.41,1h255.14    c10.65,0,19.32,8.67,19.32,19.32v471.36C402.86,502.33,394.19,511,383.54,511z M128.41,16.45c-2.13,0-3.86,1.73-3.86,3.86v471.36    c0,2.13,1.73,3.86,3.86,3.86h255.14c2.13,0,3.86-1.73,3.86-3.86V20.32c0-2.13-1.73-3.86-3.86-3.86H128.41z"/></g><g><path d="M383.45,511H128.49c-10.7,0-19.4-8.7-19.4-19.4v-89.51c0-4.27,3.46-7.73,7.73-7.73h278.32c4.27,0,7.73,3.46,7.73,7.73    v89.51C402.86,502.3,394.16,511,383.45,511z M124.54,409.81v81.79c0,2.18,1.77,3.95,3.95,3.95h254.96c2.18,0,3.95-1.77,3.95-3.95    v-81.79H124.54z"/></g><g><path d="M395.13,90.83H116.81c-4.27,0-7.73-3.46-7.73-7.73V20.4c0-10.7,8.7-19.4,19.4-19.4h254.96c10.7,0,19.4,8.7,19.4,19.4v62.7    C402.86,87.37,399.4,90.83,395.13,90.83z M124.54,75.38h262.86V20.4c0-2.18-1.77-3.95-3.95-3.95H128.49    c-2.18,0-3.95,1.77-3.95,3.95V75.38z"/></g><g><path d="M253.42,487.64c-18.34,0-33.26-14.92-33.26-33.26s14.92-33.26,33.26-33.26s33.26,14.92,33.26,33.26    S271.76,487.64,253.42,487.64z M253.42,436.57c-9.82,0-17.81,7.99-17.81,17.81c0,9.82,7.99,17.81,17.81,17.81    c9.82,0,17.81-7.99,17.81-17.81C271.22,444.56,263.24,436.57,253.42,436.57z"/></g><g><path d="M322.12,53.64h-122.4c-4.27,0-7.73-3.46-7.73-7.73s3.46-7.73,7.73-7.73h122.4c4.27,0,7.73,3.46,7.73,7.73    S326.39,53.64,322.12,53.64z"/></g><g><g><path d="M130.13,368.92h-13.32c-4.27,0-7.73-3.46-7.73-7.73V150.81c0-4.27,3.46-7.73,7.73-7.73h13.32c5.12,0,9.32,3.85,9.75,8.95     l2.44,27.88c4.8,1.48,9.44,3.4,13.88,5.76l21.45-18.01c3.92-3.29,9.59-3.03,13.22,0.58l15.83,15.83     c3.61,3.61,3.86,9.29,0.58,13.21l-18.01,21.46c2.36,4.44,4.29,9.09,5.76,13.88l27.89,2.44c0,0,0.01,0,0.01,0     c5.09,0.45,8.93,4.64,8.93,9.75v22.39c0,5.12-3.85,9.32-8.95,9.75l-27.87,2.43c-1.47,4.79-3.4,9.43-5.77,13.88l18.01,21.45     c3.28,3.91,3.04,9.59-0.56,13.21l-15.85,15.84c-3.63,3.61-9.3,3.86-13.21,0.58l-21.46-18.01c-4.45,2.36-9.09,4.29-13.88,5.76     l-2.44,27.89C139.45,365.08,135.25,368.92,130.13,368.92z M124.54,353.47h0.4l2.33-26.68c0.34-4.12,3.31-7.58,7.36-8.59     c6.02-1.51,11.81-3.92,17.2-7.15c3.55-2.14,8.09-1.79,11.26,0.89l20.52,17.22l8.49-8.49l-17.23-20.52     c-2.67-3.18-3.02-7.71-0.88-11.27c3.22-5.37,5.63-11.17,7.15-17.21c1.02-4.03,4.47-6.98,8.58-7.34l26.68-2.33v-12l-26.67-2.33     c-4.12-0.36-7.57-3.31-8.58-7.32c-1.52-6.06-3.93-11.86-7.16-17.24c-2.14-3.57-1.78-8.09,0.89-11.27l17.22-20.52l-8.49-8.49     l-20.52,17.22c-3.18,2.66-7.71,3.02-11.27,0.88c-5.37-3.22-11.17-5.63-17.21-7.15c-4.03-1-7-4.46-7.34-8.61l-2.33-26.65h-0.4     V353.47z M138.42,333.19c-0.02,0-0.03,0-0.04,0.01C138.39,333.19,138.4,333.19,138.42,333.19z M142.67,328.11l0,0.04     C142.66,328.14,142.67,328.13,142.67,328.11z M159.79,324.31c-0.01,0-0.02,0.01-0.02,0.01     C159.77,324.32,159.78,324.31,159.79,324.31z M187.27,296.81c-0.01,0.01-0.01,0.02-0.02,0.03     C187.25,296.83,187.26,296.82,187.27,296.81z M221.58,261.55c-0.01,0-0.02,0-0.02,0H221.58z M221.56,250.45c0,0,0.01,0,0.01,0     H221.56z M159.75,187.67c0.01,0,0.02,0.01,0.03,0.01C159.77,187.68,159.76,187.68,159.75,187.67z M142.66,183.82l0,0.05     C142.66,183.85,142.66,183.83,142.66,183.82z M138.35,178.8c0.01,0,0.03,0.01,0.04,0.01C138.38,178.8,138.36,178.8,138.35,178.8z     "/></g><g><path d="M118.94,296.49c-0.78,0-1.54-0.08-2.29-0.19c-3.81-0.53-7.55-3.9-7.55-7.75v-65.1c0-4.08,3.17-7.46,7.24-7.71     c1.08-0.15,1.83-0.23,2.61-0.23c22.33,0,40.49,18.16,40.49,40.49C159.43,278.33,141.26,296.49,118.94,296.49z M124.54,231.6     v48.76c11.16-2.56,19.43-12.51,19.43-24.36C143.97,244.12,135.66,234.15,124.54,231.6z"/></g></g><g><g><path d="M395.19,368.92h-13.32c-5.11,0-9.3-3.84-9.75-8.93l-2.44-27.9c-4.8-1.48-9.44-3.4-13.88-5.76l-21.45,18.01     c-3.85,3.23-9.66,2.98-13.21-0.58l-15.83-15.83c-3.61-3.63-3.86-9.3-0.58-13.21l18.01-21.46c-2.36-4.44-4.29-9.09-5.76-13.88     l-27.89-2.44c-5.09-0.43-8.94-4.63-8.94-9.75v-22.39c0-5.11,3.84-9.3,8.93-9.75c0,0,0.01,0,0.01,0l27.89-2.44     c1.47-4.79,3.4-9.44,5.77-13.88l-18.01-21.45c-3.29-3.92-3.04-9.6,0.58-13.21l15.83-15.83c3.55-3.56,9.36-3.82,13.22-0.57     l21.44,18c4.45-2.37,9.09-4.29,13.88-5.77l2.44-27.89c0.45-5.1,4.64-8.93,9.75-8.93h13.32c4.27,0,7.73,3.46,7.73,7.73V361.2     C402.91,365.46,399.45,368.92,395.19,368.92z M387.06,353.47h0.4V158.53h-0.4l-2.33,26.67c-0.36,4.14-3.32,7.59-7.36,8.59     c-6.02,1.51-11.81,3.92-17.2,7.15c-3.55,2.14-8.07,1.78-11.25-0.87l-20.53-17.24l-8.49,8.49l17.22,20.52     c2.65,3.16,3.01,7.68,0.9,11.24c-3.24,5.41-5.65,11.2-7.17,17.25c-1.02,4.03-4.47,6.98-8.58,7.34L295.59,250v12l26.67,2.33     c4.12,0.36,7.57,3.31,8.58,7.32c1.52,6.06,3.93,11.86,7.16,17.24c2.13,3.58,1.77,8.1-0.89,11.26l-17.22,20.52l8.49,8.49     l20.52-17.22c3.2-2.66,7.72-3.01,11.28-0.88c5.37,3.22,11.17,5.63,17.21,7.15c4.01,0.99,6.98,4.44,7.34,8.58L387.06,353.47z      M373.61,333.19c0.01,0,0.03,0.01,0.04,0.01C373.64,333.2,373.62,333.2,373.61,333.19z M324.41,332.5c0,0.01-0.01,0.01-0.02,0.02     L324.41,332.5z M352.22,324.32c0.01,0,0.02,0.01,0.03,0.01C352.24,324.32,352.24,324.32,352.22,324.32z M320.92,279.73H321     H320.92z M290.41,261.55l0.02,0C290.42,261.55,290.41,261.55,290.41,261.55z M290.43,250.45c0,0,0.01,0,0.01,0H290.43z      M352.24,187.68c-0.01,0-0.02,0.01-0.02,0.01C352.22,187.69,352.23,187.68,352.24,187.68z M324.41,179.5     c0.01,0,0.01,0.01,0.02,0.01L324.41,179.5z M332.07,179.15l-0.02,0.02C332.06,179.16,332.07,179.16,332.07,179.15z M373.63,178.8     c-0.02,0-0.03,0.01-0.04,0.01C373.6,178.81,373.61,178.81,373.63,178.8z"/></g><g><path d="M393.06,296.49c-22.33,0-40.49-18.16-40.49-40.49c0-22.33,18.16-40.49,40.49-40.49c0.78,0,1.53,0.08,2.28,0.18     c3.83,0.53,7.57,3.9,7.57,7.76v65.1c0,4.08-3.17,7.46-7.24,7.71C394.6,296.41,393.85,296.49,393.06,296.49z M387.46,231.6     c-11.12,2.55-19.43,12.52-19.43,24.4c0,11.88,8.32,21.85,19.43,24.4V231.6z"/></g></g></g></svg>