<svg id="light" enable-background="new 0 0 24 24" height="512" viewBox="0 0 24 24" width="512" xmlns="http://www.w3.org/2000/svg"><g><path d="m20.5 11c-.3 0-.5-.2-.5-.5v-5c0-.8-.7-1.5-1.5-1.5h-8c-.3 0-.5-.2-.5-.5s.2-.5.5-.5h8c1.4 0 2.5 1.1 2.5 2.5v5c0 .3-.2.5-.5.5z"/></g><g><path d="m20.5 11c-.1 0-.3 0-.4-.1l-2-2c-.2-.2-.2-.5 0-.7s.5-.2.7 0l1.6 1.6 1.6-1.6c.2-.2.5-.2.7 0s.2.5 0 .7l-2 2c.1.1-.1.1-.2.1z"/></g><g><path d="m11.5 21h-6c-1.4 0-2.5-1.1-2.5-2.5v-5c0-.3.2-.5.5-.5s.5.2.5.5v5c0 .8.7 1.5 1.5 1.5h6c.3 0 .5.2.5.5s-.2.5-.5.5z"/></g><g><path d="m5.5 16c-.1 0-.3 0-.4-.1l-1.6-1.6-1.6 1.6c-.2.2-.5.2-.7 0s-.2-.5 0-.7l2-2c.2-.2.5-.2.7 0l2 2c.2.2.2.5 0 .7-.1.1-.3.1-.4.1z"/></g><g><path d="m5 5c-1.4 0-2.5-1.1-2.5-2.5s1.1-2.5 2.5-2.5 2.5 1.1 2.5 2.5-1.1 2.5-2.5 2.5zm0-4c-.8 0-1.5.7-1.5 1.5s.7 1.5 1.5 1.5 1.5-.7 1.5-1.5-.7-1.5-1.5-1.5z"/></g><g><path d="m9.5 10c-.3 0-.5-.2-.5-.5v-1c0-.8-.7-1.5-1.5-1.5h-5c-.8 0-1.5.7-1.5 1.5v1c0 .3-.2.5-.5.5s-.5-.2-.5-.5v-1c0-1.4 1.1-2.5 2.5-2.5h5c1.4 0 2.5 1.1 2.5 2.5v1c0 .3-.2.5-.5.5z"/></g><g><path d="m19 19c-1.4 0-2.5-1.1-2.5-2.5s1.1-2.5 2.5-2.5 2.5 1.1 2.5 2.5-1.1 2.5-2.5 2.5zm0-4c-.8 0-1.5.7-1.5 1.5s.7 1.5 1.5 1.5 1.5-.7 1.5-1.5-.7-1.5-1.5-1.5z"/></g><g><path d="m23.5 24c-.3 0-.5-.2-.5-.5v-1c0-.8-.7-1.5-1.5-1.5h-5c-.8 0-1.5.7-1.5 1.5v1c0 .3-.2.5-.5.5s-.5-.2-.5-.5v-1c0-1.4 1.1-2.5 2.5-2.5h5c1.4 0 2.5 1.1 2.5 2.5v1c0 .3-.2.5-.5.5z"/></g></svg>