<?xml version="1.0" encoding="utf-8"?>
<!-- Generator: Adobe Illustrator 23.0.3, SVG Export Plug-In . SVG Version: 6.00 Build 0)  -->
<svg version="1.1" id="Layer_1" xmlns="http://www.w3.org/2000/svg" xmlns:xlink="http://www.w3.org/1999/xlink" x="0px" y="0px"
	 viewBox="0 0 512 512" style="enable-background:new 0 0 512 512;" xml:space="preserve">
<style type="text/css">
	.st0{fill:none;}
	.st1{fill:#FFFFFF;}
</style>
<g>
	<title>background</title>
	<rect id="canvas_background" x="-481" y="-5.5" class="st0" width="582" height="402"/>
</g>
<g>
	<title>Layer 1</title>
	<path id="svg_3" class="st1" d="M376.3,511H121.2c-10.7,0-19.3-8.7-19.3-19.3V20.3c0-10.6,8.7-19.3,19.3-19.3h255.1
		c10.6,0,19.3,8.7,19.3,19.3v471.4C395.7,502.3,387,511,376.3,511z M121.2,16.5c-2.1,0-3.9,1.7-3.9,3.9v471.4c0,2.1,1.7,3.9,3.9,3.9
		h255.1c2.1,0,3.9-1.7,3.9-3.9V20.3c0-2.1-1.7-3.9-3.9-3.9L121.2,16.5L121.2,16.5L121.2,16.5z"/>
	<path id="svg_5" class="st1" d="M376.3,511h-255c-10.7,0-19.4-8.7-19.4-19.4v-89.5c0-4.3,3.5-7.7,7.7-7.7h278.3
		c4.3,0,7.7,3.5,7.7,7.7v89.5C395.7,502.3,387,511,376.3,511z M117.3,409.8v81.8c0,2.2,1.8,4,3.9,4h255c2.2,0,4-1.8,4-4v-81.8H117.3
		L117.3,409.8z"/>
	<path id="svg_7" class="st1" d="M387.9,90.8H109.6c-4.3,0-7.7-3.5-7.7-7.7V20.4c0-10.7,8.7-19.4,19.4-19.4h255
		c10.7,0,19.4,8.7,19.4,19.4v62.7C395.7,87.4,392.2,90.8,387.9,90.8z M117.3,75.4h262.9v-55c0-2.2-1.8-4-4-4h-255
		c-2.2,0-3.9,1.8-3.9,4L117.3,75.4L117.3,75.4z"/>
	<path id="svg_9" class="st1" d="M246.2,487.6c-18.3,0-33.3-14.9-33.3-33.3s14.9-33.3,33.3-33.3c18.3,0,33.3,14.9,33.3,33.3
		S264.6,487.6,246.2,487.6z M246.2,436.6c-9.8,0-17.8,8-17.8,17.8s8,17.8,17.8,17.8c9.8,0,17.8-8,17.8-17.8
		C264,444.6,256,436.6,246.2,436.6L246.2,436.6z"/>
	<path id="svg_11" class="st1" d="M314.9,53.6H192.5c-4.3,0-7.7-3.5-7.7-7.7s3.5-7.7,7.7-7.7h122.4c4.3,0,7.7,3.5,7.7,7.7
		S319.2,53.6,314.9,53.6z"/>
	<path id="svg_14" class="st1" d="M122.9,368.9h-13.3c-4.3,0-7.7-3.5-7.7-7.7V150.8c0-4.3,3.5-7.7,7.7-7.7h13.3
		c5.1,0,9.3,3.9,9.8,8.9l2.4,27.9c4.8,1.5,9.4,3.4,13.9,5.8l21.4-18c3.9-3.3,9.6-3,13.2,0.6l15.8,15.8c3.6,3.6,3.9,9.3,0.6,13.2
		l-18,21.5c2.4,4.4,4.3,9.1,5.8,13.9l27.9,2.4h0c5.1,0.4,8.9,4.6,8.9,9.8v22.4c0,5.1-3.9,9.3-9,9.8l-27.9,2.4
		c-1.5,4.8-3.4,9.4-5.8,13.9l18,21.5c3.3,3.9,3,9.6-0.6,13.2l-15.9,15.8c-3.6,3.6-9.3,3.9-13.2,0.6l-21.5-18
		c-4.5,2.4-9.1,4.3-13.9,5.8l-2.4,27.9C132.3,365.1,128.1,368.9,122.9,368.9L122.9,368.9z M117.3,353.5h0.4l2.3-26.7
		c0.3-4.1,3.3-7.6,7.4-8.6c6-1.5,11.8-3.9,17.2-7.1c3.6-2.1,8.1-1.8,11.3,0.9l20.5,17.2l8.5-8.5l-17.2-20.5c-2.7-3.2-3-7.7-0.9-11.3
		c3.2-5.4,5.6-11.2,7.1-17.2c1-4,4.5-7,8.6-7.3l26.7-2.3v-12l-26.7-2.3c-4.1-0.4-7.6-3.3-8.6-7.3c-1.5-6.1-3.9-11.9-7.2-17.2
		c-2.1-3.6-1.8-8.1,0.9-11.3l17.2-20.5l-8.5-8.5l-20.5,17.2c-3.2,2.7-7.7,3-11.3,0.9c-5.4-3.2-11.2-5.6-17.2-7.1c-4-1-7-4.5-7.3-8.6
		l-2.3-26.6h-0.4L117.3,353.5L117.3,353.5z M131.2,333.2C131.2,333.2,131.2,333.2,131.2,333.2C131.2,333.2,131.2,333.2,131.2,333.2z
		 M135.5,328.1L135.5,328.1C135.5,328.1,135.5,328.1,135.5,328.1z M152.6,324.3C152.6,324.3,152.6,324.3,152.6,324.3
		C152.6,324.3,152.6,324.3,152.6,324.3z M180.1,296.8C180.1,296.8,180.1,296.8,180.1,296.8C180.1,296.8,180.1,296.8,180.1,296.8z
		 M214.4,261.6C214.4,261.6,214.4,261.6,214.4,261.6L214.4,261.6z M214.4,250.5L214.4,250.5L214.4,250.5z M152.6,187.7
		C152.6,187.7,152.6,187.7,152.6,187.7C152.6,187.7,152.6,187.7,152.6,187.7z M135.5,183.8L135.5,183.8
		C135.5,183.9,135.5,183.8,135.5,183.8z M131.2,178.8C131.2,178.8,131.2,178.8,131.2,178.8C131.2,178.8,131.2,178.8,131.2,178.8z"/>
	<path id="svg_16" class="st1" d="M111.7,296.5c-0.8,0-1.5-0.1-2.3-0.2c-3.8-0.5-7.6-3.9-7.6-7.8v-65.1c0-4.1,3.2-7.5,7.2-7.7
		c1.1-0.1,1.8-0.2,2.6-0.2c22.3,0,40.5,18.2,40.5,40.5C152.2,278.3,134.1,296.5,111.7,296.5z M117.3,231.6v48.8
		c11.2-2.6,19.4-12.5,19.4-24.4C136.8,244.1,128.5,234.1,117.3,231.6z"/>
	<path id="svg_19" class="st1" d="M388,368.9h-13.3c-5.1,0-9.3-3.8-9.8-8.9l-2.4-27.9c-4.8-1.5-9.4-3.4-13.9-5.8l-21.5,18
		c-3.9,3.2-9.7,3-13.2-0.6l-15.8-15.8c-3.6-3.6-3.9-9.3-0.6-13.2l18-21.5c-2.4-4.4-4.3-9.1-5.8-13.9l-27.9-2.4
		c-5.1-0.4-8.9-4.6-8.9-9.8v-22.4c0-5.1,3.8-9.3,8.9-9.8h0l27.9-2.4c1.5-4.8,3.4-9.4,5.8-13.9l-18-21.4c-3.3-3.9-3-9.6,0.6-13.2
		l15.8-15.8c3.5-3.6,9.4-3.8,13.2-0.6l21.4,18c4.5-2.4,9.1-4.3,13.9-5.8l2.4-27.9c0.5-5.1,4.6-8.9,9.8-8.9H388
		c4.3,0,7.7,3.5,7.7,7.7v210.4C395.7,365.5,392.3,368.9,388,368.9L388,368.9z M379.9,353.5h0.4V158.5h-0.4l-2.3,26.7
		c-0.4,4.1-3.3,7.6-7.4,8.6c-6,1.5-11.8,3.9-17.2,7.1c-3.5,2.1-8.1,1.8-11.2-0.9l-20.5-17.2l-8.5,8.5l17.2,20.5
		c2.6,3.2,3,7.7,0.9,11.2c-3.2,5.4-5.6,11.2-7.2,17.2c-1,4-4.5,7-8.6,7.3l-26.7,2.3v12l26.7,2.3c4.1,0.4,7.6,3.3,8.6,7.3
		c1.5,6.1,3.9,11.9,7.2,17.2c2.1,3.6,1.8,8.1-0.9,11.3l-17.2,20.5l8.5,8.5l20.5-17.2c3.2-2.7,7.7-3,11.3-0.9
		c5.4,3.2,11.2,5.6,17.2,7.1c4,1,7,4.4,7.3,8.6L379.9,353.5L379.9,353.5z M366.4,333.2C366.4,333.2,366.4,333.2,366.4,333.2
		C366.4,333.2,366.4,333.2,366.4,333.2z M317.2,332.5C317.2,332.5,317.2,332.5,317.2,332.5L317.2,332.5z M345,324.3
		C345,324.3,345,324.3,345,324.3C345,324.3,345,324.3,345,324.3z M313.7,279.7L313.7,279.7L313.7,279.7z M283.2,261.6L283.2,261.6
		C283.2,261.6,283.2,261.6,283.2,261.6z M283.2,250.5L283.2,250.5L283.2,250.5z M345,187.7C345,187.7,345,187.7,345,187.7
		C345,187.7,345,187.7,345,187.7z M317.2,179.5C317.2,179.5,317.2,179.5,317.2,179.5L317.2,179.5z M324.9,179.1L324.9,179.1
		C324.9,179.2,324.9,179.2,324.9,179.1z M366.4,178.8C366.4,178.8,366.4,178.8,366.4,178.8C366.4,178.8,366.4,178.8,366.4,178.8z"/>
	<path id="svg_21" class="st1" d="M385.9,296.5c-22.3,0-40.5-18.2-40.5-40.5s18.2-40.5,40.5-40.5c0.8,0,1.5,0.1,2.3,0.2
		c3.8,0.5,7.6,3.9,7.6,7.8v65.1c0,4.1-3.2,7.5-7.2,7.7C387.4,296.4,386.7,296.5,385.9,296.5L385.9,296.5z M380.3,231.6
		c-11.1,2.6-19.4,12.5-19.4,24.4s8.3,21.8,19.4,24.4V231.6z"/>
</g>
</svg>
